<?xml version="1.0" encoding="utf-8"?>
<svg width="145.004" height="16.002" viewBox="0 0 17.002 16.561" xmlns="http://www.w3.org/2000/svg">
  <defs>
    <style>.a{fill:#00bfff;}.b{fill:#1b294b;}</style>
  </defs>
  <path class="a" d="M22160.029,21902a5.031,5.031,0,0,1-5.031-5.029v-5.937a5.034,5.034,0,0,1,5.031-5.035h5.938a5.035,5.035,0,0,1,5.035,5.035V21902Zm-2.365-10.967v5.938a2.37,2.37,0,0,0,2.365,2.365h8.307v-8.3a2.371,2.371,0,0,0-2.369-2.369h-5.937A2.371,2.371,0,0,0,22157.664,21891.033Zm3.322,5.965a.983.983,0,0,1-.984-.984v-4.029a.983.983,0,0,1,.984-.984h4.027a.983.983,0,0,1,.986.984V21897Z" transform="translate(-22154.998 -21885.998)" style="fill: rgb(160, 180, 84);"/>
</svg>